<svg width="16" height="18" viewBox="0 0 16 18" fill="none" xmlns="http://www.w3.org/2000/svg">
<path d="M10.6744 0H0.950195V18H15.0502V4.3758L10.6744 0ZM4.2502 4.2H7.2502C7.41579 4.2 7.55019 4.3341 7.55019 4.5C7.55019 4.6659 7.41579 4.8 7.2502 4.8H4.2502C4.0846 4.8 3.9502 4.6659 3.9502 4.5C3.9502 4.3341 4.0846 4.2 4.2502 4.2ZM11.7502 14.4H4.2502C4.0846 14.4 3.9502 14.2659 3.9502 14.1C3.9502 13.9341 4.0846 13.8 4.2502 13.8H11.7502C11.9158 13.8 12.0502 13.9341 12.0502 14.1C12.0502 14.2659 11.9158 14.4 11.7502 14.4ZM11.7502 12H4.2502C4.0846 12 3.9502 11.8659 3.9502 11.7C3.9502 11.5341 4.0846 11.4 4.2502 11.4H11.7502C11.9158 11.4 12.0502 11.5341 12.0502 11.7C12.0502 11.8659 11.9158 12 11.7502 12ZM11.7502 9.6H4.2502C4.0846 9.6 3.9502 9.4659 3.9502 9.3C3.9502 9.1341 4.0846 9 4.2502 9H11.7502C11.9158 9 12.0502 9.1341 12.0502 9.3C12.0502 9.4659 11.9158 9.6 11.7502 9.6ZM11.7502 7.2H4.2502C4.0846 7.2 3.9502 7.0659 3.9502 6.9C3.9502 6.7341 4.0846 6.6 4.2502 6.6H11.7502C11.9158 6.6 12.0502 6.7341 12.0502 6.9C12.0502 7.0659 11.9158 7.2 11.7502 7.2ZM10.2502 4.8V0.6L14.4502 4.8H10.2502Z" fill="#828282"/>
</svg>
