<svg width="27" height="32" viewBox="0 0 27 32" fill="none" xmlns="http://www.w3.org/2000/svg">
<path d="M25.9482 5.76998C23.9034 5.76998 22.3517 4.56438 20.7084 3.28838C18.8205 1.82195 16.6811 0.160156 13.5004 0.160156C10.3197 0.160156 8.18026 1.82195 6.29239 3.28838C4.64945 4.56438 3.09737 5.76998 1.05261 5.76998C0.690967 5.76998 0.397461 6.06566 0.397461 6.42998C0.397461 14.1363 1.34996 19.2674 3.48661 23.068C5.60789 26.8418 8.76552 29.1885 13.173 31.7518C13.2743 31.8106 13.3872 31.8402 13.5004 31.8402C13.6136 31.8402 13.7265 31.8106 13.8278 31.7518C18.2353 29.1885 21.3929 26.8418 23.5142 23.068C25.6505 19.2678 26.603 14.1363 26.603 6.42998C26.6033 6.06566 26.3098 5.76998 25.9482 5.76998ZM13.5004 30.417C5.59776 25.7748 1.81328 21.7754 1.70985 7.05689C3.86852 6.8376 5.50516 5.56652 7.09254 4.33347C8.89865 2.93075 10.7663 1.48016 13.5004 1.48016C16.2345 1.48016 18.1022 2.93075 19.9083 4.33347C21.4956 5.56652 23.1323 6.8376 25.291 7.05689C25.1875 21.7754 21.403 25.7748 13.5004 30.417Z" fill="#FFD43E"/>
<path d="M17.6004 16.6822C16.9105 16.6822 16.2641 16.4075 15.6768 15.9606L15.8198 15.3295L15.826 15.3062C15.9534 14.6342 16.3574 13.5066 17.6004 13.5066C18.5326 13.5066 19.2909 14.2194 19.2909 15.0958C19.2878 15.9693 18.5295 16.6822 17.6004 16.6822ZM17.6004 11.8969C16.0124 11.8969 14.7819 12.8668 14.2815 14.4619C13.5171 13.3839 12.9391 12.0897 12.6004 11H10.8912V15.1805C10.8912 16.0044 10.1765 16.6763 9.3002 16.6763C8.42388 16.6763 7.70915 16.0044 7.70915 15.1805V11H6.00002V15.1805C5.9938 16.8925 7.47609 18.2977 9.29709 18.2977C11.1181 18.2977 12.6004 16.8925 12.6004 15.1805V14.4794C12.9329 15.1309 13.34 15.7882 13.8341 16.3725L12.7868 21H14.5364L15.2946 17.6433C15.9596 18.0435 16.7241 18.2948 17.6004 18.2948C19.4742 18.2948 21 16.8516 21 15.09C21 13.3313 19.4742 11.8969 17.6004 11.8969Z" fill="#FFD43E"/>
</svg>
