<svg width="14" height="10" viewBox="0 0 14 10" fill="none" xmlns="http://www.w3.org/2000/svg">
<path d="M13.9903 1.46269C13.9897 1.0676 13.6681 0.746582 13.2732 0.746582C13.2728 0.746582 13.2725 0.746582 13.2722 0.746582L0.716132 0.763836C0.524589 0.764082 0.344586 0.838922 0.209317 0.974546C0.0740747 1.1102 -0.000245484 1.29042 6.09203e-07 1.48191L0.00970762 8.53738C0.00995372 8.72892 0.0847934 8.90892 0.220418 9.04419C0.355797 9.17921 0.535582 9.25351 0.726796 9.25351C0.727124 9.25351 0.72748 9.25351 0.727753 9.25351L13.2838 9.23625C13.6792 9.23571 14.0004 8.91363 13.9999 8.51818L13.9903 1.46269ZM12.4854 1.46476L7.00053 5.27768L1.505 1.47986L12.4854 1.46476ZM9.31999 5.99728L12.5731 8.52015L1.41763 8.53546L4.69057 5.99728C4.84703 5.8759 4.87552 5.6507 4.75417 5.49419C4.63279 5.33773 4.40759 5.30923 4.25107 5.43058L0.726277 8.16411L0.717527 1.80738L6.79723 6.00893C6.85859 6.05134 6.92982 6.07251 7.00108 6.07251C7.07264 6.07251 7.14425 6.0511 7.20575 6.00836L13.2736 1.79021L13.2828 8.1631L9.75943 5.43061C9.60305 5.30929 9.37774 5.33775 9.25639 5.49421C9.13501 5.65067 9.16348 5.87593 9.31999 5.99728Z" />
</svg>
