<svg width="15" height="15" viewBox="0 0 15 15" fill="none" xmlns="http://www.w3.org/2000/svg">
<path d="M1.33195 1.22292L1.2182 1.36806C1.0311 1.6068 0.872259 1.8853 0.753189 2.18849C0.641654 2.48298 0.574688 2.75707 0.544172 3.0272L0.543734 3.03094C0.266265 5.33122 1.28475 7.50183 4.39862 10.6157C8.56462 14.7814 11.8762 14.4863 11.9908 14.4748C12.2761 14.4404 12.5494 14.3723 12.83 14.2634C13.1306 14.1459 13.4097 13.9871 13.6491 13.7998L13.7626 13.7109L14.2807 13.2036C14.5733 12.9085 14.5629 12.4619 14.3098 12.2077C14.3097 12.2077 14.3097 12.2076 14.3096 12.2075L11.9944 9.89202C11.9943 9.89195 11.9942 9.89188 11.9941 9.8918C11.7397 9.63865 11.292 9.62899 10.9978 9.92331L10.9977 9.92341L9.83066 11.0902L9.56491 11.3559L9.2358 11.1745C9.16127 11.1335 9.08424 11.0906 9.00339 11.0452L9.00274 11.0449C8.25931 10.633 7.19912 10.0455 6.08618 8.93181C6.08613 8.93176 6.08608 8.93171 6.08603 8.93165M1.33195 1.22292L4.40761 5.77023C4.81702 6.50733 5.37713 7.51578 6.43971 8.57823L6.08603 8.93165M1.33195 1.22292L1.81329 0.738807C1.81343 0.738667 1.81357 0.738527 1.81371 0.738387C2.10913 0.443325 2.55639 0.454192 2.80908 0.706754C2.80911 0.706778 2.80913 0.706802 2.80916 0.706826L5.12542 3.02361C5.12547 3.02366 5.12552 3.02371 5.12557 3.02376C5.12558 3.02377 5.12559 3.02378 5.1256 3.02378C5.37903 3.27773 5.38943 3.72489 5.09452 4.01988L5.09435 4.02005L4.70974 4.40513L4.70926 4.40561L3.92647 5.18724L3.65596 5.45735L3.84569 5.78921C3.87884 5.84721 3.91235 5.90783 3.94913 5.97436C3.95525 5.98544 3.96146 5.99668 3.96778 6.00809L3.96819 6.00883L3.97352 6.01844C4.38622 6.76147 4.97395 7.81967 6.08603 8.93165M1.33195 1.22292L6.08603 8.93165" stroke="white"/>
</svg>
