<svg width="64" height="40" viewBox="0 0 64 40" fill="none" xmlns="http://www.w3.org/2000/svg">
<path d="M62.9121 25.0369C62.0151 19.0339 56.9091 14.7559 51.1131 14.4799C52.5621 9.09793 56.0811 6.95893 60.3591 5.71693C60.7731 5.57893 60.7041 5.16493 60.7041 5.16493L60.0141 0.88693C60.0141 0.88693 59.9451 0.541931 59.3931 0.610931C44.6271 2.26693 34.6221 13.5139 36.4851 27.1759C38.2101 36.6289 45.5931 40.2859 52.4241 39.3199C59.2551 38.2159 63.9471 31.8679 62.9121 25.0369ZM15.7851 14.4799C17.1651 9.09793 20.8221 6.95893 25.0311 5.71693C25.4451 5.57893 25.3761 5.16493 25.3761 5.16493L24.7551 0.88693C24.7551 0.88693 24.6861 0.541931 24.1341 0.610931C9.36813 2.19793 -0.567868 13.4449 1.15713 27.1069C2.95113 36.6289 10.4031 40.2859 17.1651 39.3199C23.9961 38.2159 28.6881 31.8679 27.5841 25.0369C26.6871 18.9649 21.6501 14.6869 15.7851 14.4799Z" fill="#FCDA61"/>
</svg>
