<svg width="16" height="16" viewBox="0 0 16 16" fill="none" xmlns="http://www.w3.org/2000/svg">
<path d="M15.7046 0.743318C15.444 0.402893 15.0399 0.207764 14.5956 0.207764C14.3087 0.207764 14.0115 0.287617 13.7119 0.444921L0.956406 7.13275C0.0498052 7.60887 -0.0132366 8.32574 0.0017733 8.61153C0.0161828 8.89912 0.154875 9.60459 1.1059 9.98224L2.73598 10.6271C3.04519 10.7495 3.39102 10.8126 3.76327 10.8126C3.8221 10.8126 3.87854 10.8048 3.93678 10.8018C3.91457 10.8306 3.88755 10.8528 3.86713 10.8828C3.56333 11.3373 3.54832 11.9533 3.82331 12.6168C3.82751 12.6282 3.83171 12.6378 3.83591 12.6474C4.31803 13.7155 4.85419 14.9211 4.91903 15.0886C5.07874 15.5053 5.48581 15.7923 5.9325 15.7923C6.62056 15.7923 6.82469 15.4609 7.95044 13.6285C8.0381 13.494 8.23323 13.1818 8.26625 12.7843C8.39774 12.8377 8.52142 12.887 8.62709 12.9296L10.4331 13.6657C10.7951 13.8134 11.1121 13.9437 11.279 14.0127C11.3307 14.0445 11.3853 14.0715 11.4424 14.095C11.5696 14.1454 11.7053 14.1712 11.8416 14.1712C12.663 14.1712 12.8599 13.4597 12.9656 13.0785C13.0178 12.89 13.0898 12.6288 13.1673 12.3406L15.9219 2.2191C16.1297 1.45479 15.8745 0.966667 15.7046 0.743318ZM7.04084 13.0521C7.04084 13.0521 6.01896 14.7158 5.9319 14.7158C5.9295 14.7158 5.9283 14.7146 5.9271 14.7122C5.82683 14.4426 4.81696 12.2049 4.81696 12.2049C4.63084 11.7564 4.66446 11.3722 4.98447 11.3722C5.05472 11.3722 5.13878 11.3908 5.23724 11.4316L6.02136 11.8393C6.15225 11.9287 6.29514 12.0062 6.45245 12.068L6.49207 12.083L6.56592 12.1203C7.17172 12.4409 7.36445 12.5567 7.04084 13.0521ZM14.8832 1.93571L12.1298 12.0572C11.9743 12.6276 11.8446 13.0941 11.8422 13.0941C11.8398 13.0929 11.8368 13.0821 11.8368 13.0803C11.8368 13.0767 11.3877 12.893 10.839 12.6684L9.03176 11.9323C8.48299 11.7102 7.583 11.3505 7.03123 11.138L6.93997 11.1014L6.60255 10.9261C6.26812 10.6697 6.23871 10.247 6.57493 9.88858L12.1658 3.90201C12.3904 3.66245 12.475 3.53877 12.4264 3.53877C12.388 3.53877 12.2637 3.61862 12.056 3.78133L4.98207 9.36143C4.67347 9.60219 4.20456 9.73668 3.76387 9.73668C3.53812 9.73668 3.31897 9.70065 3.13225 9.6268L1.50337 8.98258C0.952803 8.76463 0.931789 8.36237 1.45594 8.08618L14.2126 1.39715C14.3597 1.3203 14.4888 1.28428 14.5956 1.28428C14.87 1.28428 14.9949 1.52444 14.8832 1.93571Z" />
</svg>
