<svg width="16" height="16" viewBox="0 0 16 16" fill="none" xmlns="http://www.w3.org/2000/svg">
<path d="M16 7.79418C16 12.0985 12.4835 15.5878 8.14478 15.5878C6.76793 15.5878 5.47455 15.2357 4.34865 14.619L0 16L1.41755 11.8173C0.702775 10.6434 0.291127 9.26494 0.291127 7.79365C0.291649 3.48935 3.80709 0 8.14582 0C12.484 0.00104347 16 3.48988 16 7.79418ZM8.14426 1.24277C4.50308 1.24277 1.5412 4.18222 1.5412 7.79574C1.5412 9.22947 2.00867 10.5568 2.7991 11.6367L1.97476 14.0696L4.51143 13.2635C5.5549 13.948 6.8034 14.3466 8.14426 14.3466C11.7854 14.3466 14.7484 11.4077 14.7484 7.79418C14.7494 4.18222 11.786 1.24277 8.14426 1.24277ZM12.1115 9.58946C12.0625 9.51068 11.9341 9.46268 11.7421 9.36668C11.5507 9.27068 10.6027 8.80895 10.4268 8.74634C10.2495 8.68217 10.1211 8.64982 9.99276 8.8413C9.86598 9.03277 9.49659 9.46268 9.38338 9.59103C9.2712 9.71885 9.15903 9.73503 8.96651 9.64059C8.77399 9.54355 8.15313 9.3432 7.41748 8.6926C6.84514 8.18548 6.45854 7.56096 6.34689 7.36949C6.23367 7.17853 6.33541 7.07523 6.43089 6.98027C6.51697 6.89419 6.62341 6.75697 6.71993 6.6448C6.81645 6.53367 6.84827 6.45489 6.91245 6.32706C6.97558 6.19924 6.94375 6.08811 6.89627 5.99159C6.84827 5.89559 6.46376 4.95647 6.30254 4.57404C6.14237 4.19213 5.9822 4.25526 5.8695 4.25526C5.75733 4.25526 5.62898 4.23961 5.50064 4.23961C5.37229 4.23961 5.1636 4.28604 4.98777 4.47752C4.81195 4.66899 4.31421 5.13073 4.31421 6.07089C4.31421 7.0121 5.00342 7.91939 5.09994 8.0467C5.19699 8.17348 6.43245 10.166 8.38947 10.9308C10.3475 11.6952 10.3475 11.44 10.7002 11.4077C11.054 11.3754 11.8397 10.946 11.9993 10.5004C12.16 10.0528 12.16 9.66929 12.1115 9.58946Z"/>
</svg>
