<svg width="79" height="88" viewBox="0 0 79 88" fill="none" xmlns="http://www.w3.org/2000/svg">
<path d="M50.5109 32.0312C64.0251 39.8336 65.2003 47.5097 54.2923 59.2578C44.0521 70.2867 37.8201 85.8397 25.0243 72.9275C13.6636 57.5298 5.9116 42.0056 17.3545 34.2489C29.6774 25.8957 36.9968 24.2288 50.5109 32.0312Z" fill="#FCDA60"/>
<path d="M67.1862 45.85C63.6162 45.85 60.7119 42.9291 60.7119 39.3373C60.7119 35.7469 63.6162 32.8253 67.1862 32.8253C70.7562 32.8253 73.6612 35.7469 73.6612 39.3373C73.6612 42.9291 70.7562 45.85 67.1862 45.85ZM67.1862 34.9373C64.7747 34.9373 62.8119 36.912 62.8119 39.3373C62.8119 41.764 64.7747 43.738 67.1862 43.738C69.5977 43.738 71.5612 41.764 71.5612 39.3373C71.5612 36.912 69.5977 34.9373 67.1862 34.9373Z" fill="#444444"/>
<path d="M34.2887 52.7134C34.2684 52.7134 34.2481 52.7134 34.2278 52.712C33.6769 52.6803 33.245 52.2255 33.238 51.6707C33.2345 51.3849 32.6815 23.0982 15.1955 19.7802C14.6257 19.6718 14.2505 19.1199 14.3583 18.5468C14.4654 17.9738 15.0156 17.5964 15.5847 17.7049C28.6901 20.1914 33.1022 34.5572 34.5869 43.7965C35.996 37.4014 38.5538 29.6693 42.6845 29.6546C42.688 29.6546 42.6922 29.6546 42.6957 29.6546C47.112 29.6546 49.1077 39.3585 49.9582 46.0394C51.3001 42.7757 53.6913 39.167 57.7814 38.6425C58.3603 38.5665 58.8825 38.979 58.956 39.5563C59.0288 40.135 58.6221 40.6637 58.0474 40.7376C52.0813 41.5029 50.5042 51.7059 50.4881 51.8094C50.4097 52.3431 49.9414 52.7373 49.4073 52.7084C48.8704 52.6866 48.4371 52.2614 48.4021 51.7235C47.7714 42.1224 45.411 31.7673 42.6957 31.7673C42.6943 31.7673 42.6929 31.7673 42.6915 31.7673C39.3672 31.7792 36.3852 43.4846 35.3289 51.7932C35.2624 52.3212 34.813 52.7134 34.2887 52.7134Z" fill="#444444"/>
</svg>
