<svg width="80" height="67" viewBox="0 0 80 67" fill="none" xmlns="http://www.w3.org/2000/svg">
<path d="M57.4662 26.0109C65.2686 39.5251 62.4483 46.7603 47.1277 51.4805C32.7449 55.9117 19.5714 66.265 14.946 48.6849C12.8061 29.6696 13.8548 12.3493 27.643 11.3533C42.4916 10.2807 49.6638 12.4968 57.4662 26.0109Z" fill="#FCDA60"/>
<g clip-path="url(#clip0)">
<path d="M57.4204 37.5981H55.6624V40.6375H47.1784V37.5981H45.4204V40.6375H43.0244V42.402H45.4204H57.4204H59.8184V40.6375H57.4204V37.5981Z" fill="#444444"/>
<path d="M52.5518 26.5148H59.8138V14.4097H52.5518V26.5148ZM54.3098 16.1763H58.0558V24.7502H54.3098V16.1763Z" fill="#444444"/>
<path d="M43.0303 26.5148H50.2883V14.4097H43.0303V26.5148ZM44.7883 16.1763H48.5343V24.7502H44.7883V16.1763Z" fill="#444444"/>
<path d="M69.3379 4.42456H33.5039V12.0349H69.3379V4.42456ZM67.5819 10.2703H35.2619V6.18914H67.5819V10.2703Z" fill="#444444"/>
<path d="M75.0902 37.4215H70.6162V39.1861H75.0902V37.4215Z" fill="#444444"/>
<path d="M77.53 18.1766H73.736V2.39978C73.736 1.76341 73.486 1.15916 73.034 0.703459C72.582 0.247761 71.984 -0.00317383 71.34 -0.00317383H31.502C30.866 -0.00317383 30.264 0.247761 29.806 0.703459C29.358 1.15916 29.112 1.75939 29.112 2.39978V14.4105H23.288C21.474 14.4125 20 15.89 20 17.7128V39.1066C20 40.9233 21.474 42.4028 23.288 42.4028H37.378C39.188 42.4028 40.664 40.9273 40.664 39.1066V35.9709H65.704V39.9176C65.704 41.2887 66.818 42.4008 68.18 42.4008H77.528C78.896 42.4008 80.002 41.2847 80.002 39.9176V20.6598C80.002 19.2887 78.892 18.1766 77.53 18.1766ZM38.908 39.1046C38.908 39.9477 38.22 40.6383 37.376 40.6383H23.292C22.448 40.6383 21.76 39.9477 21.76 39.1046V17.7088C21.76 16.8637 22.448 16.1731 23.292 16.1731H37.378C38.222 16.1731 38.91 16.8617 38.91 17.7088V39.1046H38.908ZM37.376 14.4125H30.87V2.39978C30.87 2.22914 30.934 2.06855 31.054 1.9501C31.174 1.82765 31.334 1.7614 31.506 1.7614H71.344C71.514 1.7614 71.672 1.82765 71.79 1.9481C71.916 2.07256 71.982 2.23316 71.982 2.39978V18.1746H69.346V14.4125H62.088V26.5156H65.714V29.1495H40.668V17.7128C40.664 15.89 39.19 14.4125 37.376 14.4125ZM65.706 20.6578V24.7511H63.838V16.1751H67.582V18.299C66.512 18.572 65.706 19.5035 65.706 20.6578ZM40.664 34.2043V30.908H65.706V34.2043H40.664ZM78.244 39.9176C78.244 40.3131 77.922 40.6343 77.53 40.6343H68.18C67.784 40.6343 67.464 40.3131 67.464 39.9176V35.9689V29.1475V20.6618C67.464 20.2724 67.792 19.9411 68.18 19.9411H77.53C77.922 19.9411 78.244 20.2643 78.244 20.6618V39.9176Z" fill="#444444"/>
<path d="M69.3164 28.7172H76.3884V21.8014H69.3164V28.7172ZM71.0744 23.566H74.6304V26.9546H71.0744V23.566Z" fill="#444444"/>
<path d="M76.3884 34.2035H69.3164V35.9681H76.3884V34.2035Z" fill="#444444"/>
<path d="M76.3884 30.5779H69.3164V32.3425H76.3884V30.5779Z" fill="#444444"/>
<path d="M33.3863 37.4215H27.2803V39.1861H33.3863V37.4215Z" fill="#444444"/>
<path d="M31.1162 35.968H36.6602V26.1233H31.1162V35.968ZM32.8742 27.8879H34.9062V34.2034H32.8742V27.8879Z" fill="#444444"/>
<path d="M29.5519 26.1233H24.0059V35.968H29.5519V26.1233ZM27.7939 34.2034H25.7639V27.8879H27.7959V34.2034H27.7939Z" fill="#444444"/>
<path d="M24.0059 24.5534H36.6619V18.4305H24.0059V24.5534ZM25.7639 20.1951H34.9039V22.7908H25.7639V20.1951Z" fill="#444444"/>
</g>
<defs>
<clipPath id="clip0">
<rect width="60" height="44" fill="white" transform="translate(20)"/>
</clipPath>
</defs>
</svg>
