<svg width="78" height="76" viewBox="0 0 78 76" fill="none" xmlns="http://www.w3.org/2000/svg">
<path d="M40.989 66.4664C27.4749 74.2688 20.2397 71.4485 15.5195 56.1279C11.0883 41.7451 0.734979 28.5716 18.3151 23.9462C37.3304 21.8064 54.6507 22.8551 55.6467 36.6432C56.7193 51.4918 54.5032 58.664 40.989 66.4664Z" fill="#FCDA60"/>
<g clip-path="url(#clip0)">
<path d="M62.7769 12.846L52.0679 4.81683C51.9006 4.69133 51.6898 4.63707 51.4818 4.66598L27.9598 7.94089C27.7519 7.96984 27.5639 8.0796 27.4372 8.24602C27.3104 8.41245 27.2554 8.6219 27.2841 8.82831L33.5687 53.9673C33.5975 54.1737 33.7076 54.3601 33.875 54.4856C34.0424 54.6111 34.2532 54.6653 34.4611 54.6364L67.3919 50.0515C67.5998 50.0225 67.7879 49.9128 67.9146 49.7464C68.0413 49.5799 68.0963 49.3705 68.0676 49.1641L63.0833 13.3642C63.0545 13.1578 62.9443 12.9714 62.7769 12.846ZM52.6358 7.21379L60.2981 12.9586L53.5661 13.8959L52.6358 7.21379ZM35.0285 52.9707L28.9606 9.38824L50.9145 6.33166L52.1064 14.8925C52.1351 15.0989 52.2453 15.2854 52.4126 15.4108C52.58 15.5363 52.7908 15.5905 52.9988 15.5616L61.6235 14.3608L66.3911 48.6041L35.0285 52.9707Z" fill="#444444"/>
<path d="M49.5627 8.10639L30.7451 10.7263L31.612 16.9524L50.4295 14.3325L49.5627 8.10639ZM48.6447 12.9943L32.9634 15.1775L32.53 12.0645L48.2113 9.88124L48.6447 12.9943Z" fill="#444444"/>
<path d="M38.8857 17.5266L31.8291 18.509L32.0458 20.0655L39.1024 19.0831L38.8857 17.5266Z" fill="#444444"/>
<path d="M42.0222 17.0898L40.4541 17.3081L40.6708 18.8646L42.2389 18.6463L42.0222 17.0898Z" fill="#444444"/>
<path d="M34.7233 22.0729C34.2581 22.1377 33.8224 22.3379 33.4713 22.6483C33.1202 22.9587 32.8694 23.3653 32.7508 23.8168C32.6322 24.2682 32.651 24.7441 32.8048 25.1844C32.9586 25.6246 33.2405 26.0095 33.615 26.2902C33.9894 26.5709 34.4395 26.7349 34.9083 26.7615C35.3771 26.788 35.8436 26.676 36.2488 26.4394C36.654 26.2028 36.9797 25.8524 37.1847 25.4325C37.3897 25.0126 37.4648 24.542 37.4006 24.0802C37.3143 23.461 36.9838 22.9016 36.4818 22.5252C35.9797 22.1487 35.3471 21.986 34.7233 22.0729ZM35.1567 25.1859C35.0016 25.2075 34.8437 25.183 34.7028 25.1154C34.562 25.0479 34.4446 24.9403 34.3654 24.8064C34.2863 24.6724 34.249 24.5181 34.2582 24.3629C34.2675 24.2077 34.3228 24.0587 34.4173 23.9346C34.5118 23.8104 34.6412 23.7169 34.7891 23.6657C34.937 23.6145 35.0968 23.6079 35.2483 23.6469C35.3998 23.6858 35.5361 23.7685 35.6401 23.8845C35.7441 24.0005 35.811 24.1446 35.8324 24.2985C35.8612 24.5049 35.8061 24.7144 35.6794 24.8808C35.5527 25.0472 35.3647 25.157 35.1567 25.1859Z" fill="#444444"/>
<path d="M35.6979 29.0771C35.2327 29.1418 34.797 29.3421 34.4459 29.6525C34.0948 29.9629 33.8441 30.3695 33.7254 30.8209C33.6068 31.2723 33.6256 31.7482 33.7794 32.1885C33.9332 32.6288 34.2151 33.0136 34.5896 33.2943C34.964 33.5751 35.4141 33.7391 35.8829 33.7656C36.3517 33.7922 36.8182 33.6801 37.2234 33.4435C37.6286 33.207 37.9543 32.8566 38.1593 32.4367C38.3643 32.0167 38.4395 31.5461 38.3752 31.0843C38.2889 30.4651 37.9584 29.9058 37.4564 29.5293C36.9543 29.1529 36.3217 28.9902 35.6979 29.0771ZM36.1313 32.1901C35.9762 32.2117 35.8183 32.1871 35.6775 32.1196C35.5366 32.052 35.4192 31.9445 35.34 31.8105C35.2609 31.6766 35.2236 31.5222 35.2328 31.3671C35.2421 31.2119 35.2974 31.0628 35.3919 30.9387C35.4864 30.8146 35.6158 30.721 35.7637 30.6698C35.9116 30.6186 36.0714 30.6121 36.2229 30.651C36.3744 30.69 36.5107 30.7727 36.6147 30.8887C36.7187 31.0047 36.7856 31.1487 36.807 31.3027C36.8358 31.5091 36.7807 31.7185 36.654 31.8849C36.5273 32.0514 36.3393 32.1611 36.1313 32.1901Z" fill="#444444"/>
<path d="M36.6735 36.0814C36.2083 36.1462 35.7726 36.3465 35.4215 36.6569C35.0704 36.9673 34.8196 37.3739 34.701 37.8253C34.5824 38.2767 34.6012 38.7526 34.755 39.1929C34.9088 39.6332 35.1907 40.018 35.5652 40.2987C35.9396 40.5794 36.3897 40.7435 36.8585 40.77C37.3273 40.7966 37.7938 40.6845 38.199 40.4479C38.6042 40.2114 38.9299 39.861 39.1349 39.441C39.3399 39.0211 39.415 38.5505 39.3507 38.0887C39.2645 37.4695 38.934 36.9102 38.432 36.5337C37.9299 36.1573 37.2973 35.9946 36.6735 36.0814ZM37.1069 39.1945C36.9518 39.2161 36.7939 39.1915 36.653 39.124C36.5122 39.0564 36.3948 38.9488 36.3156 38.8149C36.2365 38.681 36.1992 38.5266 36.2084 38.3715C36.2176 38.2163 36.273 38.0672 36.3675 37.9431C36.462 37.819 36.5914 37.7254 36.7393 37.6742C36.8872 37.623 37.047 37.6165 37.1985 37.6554C37.35 37.6944 37.4863 37.7771 37.5903 37.8931C37.6943 38.0091 37.7612 38.1531 37.7826 38.3071C37.8114 38.5135 37.7563 38.7229 37.6296 38.8893C37.5029 39.0558 37.3149 39.1655 37.1069 39.1945Z" fill="#444444"/>
<path d="M37.6481 43.0856C37.1829 43.1504 36.7472 43.3506 36.3961 43.661C36.045 43.9714 35.7943 44.378 35.6756 44.8295C35.557 45.2809 35.5758 45.7568 35.7296 46.1971C35.8834 46.6373 36.1653 47.0221 36.5398 47.3029C36.9142 47.5836 37.3643 47.7476 37.8331 47.7742C38.3019 47.8007 38.7684 47.6886 39.1736 47.4521C39.5788 47.2155 39.9045 46.8651 40.1095 46.4452C40.3145 46.0253 40.3897 45.5547 40.3254 45.0929C40.2391 44.4737 39.9086 43.9143 39.4066 43.5379C38.9045 43.1614 38.2719 42.9987 37.6481 43.0856ZM38.0815 46.1986C37.9264 46.2202 37.7685 46.1957 37.6277 46.1281C37.4868 46.0606 37.3694 45.953 37.2902 45.819C37.2111 45.6851 37.1738 45.5308 37.183 45.3756C37.1923 45.2204 37.2476 45.0714 37.3421 44.9472C37.4366 44.8231 37.566 44.7296 37.7139 44.6784C37.8618 44.6272 38.0216 44.6206 38.1731 44.6596C38.3246 44.6985 38.4609 44.7812 38.5649 44.8972C38.6689 45.0132 38.7358 45.1573 38.7572 45.3112C38.786 45.5176 38.7309 45.7271 38.6042 45.8935C38.4775 46.0599 38.2895 46.1697 38.0815 46.1986Z" fill="#444444"/>
<path d="M46.4843 20.4353L39.4277 21.4177L39.6444 22.9742L46.701 21.9918L46.4843 20.4353Z" fill="#444444"/>
<path d="M42.9976 24.0941L39.8613 24.5308L40.078 26.0873L43.2143 25.6506L42.9976 24.0941Z" fill="#444444"/>
<path d="M46.1336 23.6574L44.5654 23.8757L44.7821 25.4323L46.3503 25.2139L46.1336 23.6574Z" fill="#444444"/>
<path d="M49.8111 27.1122L40.4023 28.4221L40.6191 29.9786L50.0278 28.6687L49.8111 27.1122Z" fill="#444444"/>
<path d="M46.0823 34.7715L41.3779 35.4265L41.5946 36.983L46.299 36.328L46.0823 34.7715Z" fill="#444444"/>
<path d="M49.1101 33.5566L47.542 33.7749L47.7587 35.3314L49.3268 35.1131L49.1101 33.5566Z" fill="#444444"/>
<path d="M51.2203 37.2296L41.8115 38.5396L42.0282 40.0961L51.437 38.7861L51.2203 37.2296Z" fill="#444444"/>
<path d="M43.9207 42.2126L42.3525 42.4309L42.5692 43.9874L44.1374 43.7691L43.9207 42.2126Z" fill="#444444"/>
<path d="M47.0574 41.7758L45.4893 41.9941L45.706 43.5507L47.2741 43.3323L47.0574 41.7758Z" fill="#444444"/>
<path d="M49.0587 44.6704L42.7861 45.5437L43.0028 47.1002L49.2754 46.2269L49.0587 44.6704Z" fill="#444444"/>
<path d="M52.4887 29.1194L61.8975 27.8094L60.5973 18.4703L51.1885 19.7803L52.4887 29.1194ZM57.6517 23.6405L59.3991 21.3456L59.9595 25.3708L57.6517 23.6405ZM59.004 26.6256L54.9488 27.1902L56.6962 24.8953L59.004 26.6256ZM56.3898 22.6944L54.082 20.9641L58.1372 20.3995L56.3898 22.6944ZM55.4343 23.9492L53.6869 26.2441L53.1265 22.2189L55.4343 23.9492Z" fill="#444444"/>
<path d="M54.3305 42.3498L63.7393 41.0399L62.4391 31.7008L53.0303 33.0107L54.3305 42.3498ZM54.8151 34.3489L60.763 33.5208L58.3399 36.7031L57.186 35.838L56.2306 37.0928L58.6464 38.904L61.3492 35.3543L61.9545 39.7017L55.682 40.575L54.8151 34.3489Z" fill="#444444"/>
</g>
<defs>
<clipPath id="clip0">
<rect width="50.6642" height="62.8612" fill="white" transform="translate(19.1182 7.58521) rotate(-7.9262)"/>
</clipPath>
</defs>
</svg>
