<svg width="74" height="70" viewBox="0 0 74 70" fill="none" xmlns="http://www.w3.org/2000/svg">
<path d="M40.9891 60.4664C27.4749 68.2688 20.2397 65.4485 15.5195 50.1279C11.0883 35.7451 0.734981 22.5716 18.3151 17.9462C37.3304 15.8064 54.6507 16.8551 55.6467 30.6432C56.7193 45.4918 54.5032 52.664 40.9891 60.4664Z" fill="#FCDA60"/>
<path d="M62.75 24C63.0965 24 63.4205 23.9152 63.7137 23.7742L65.9697 26.0303L67.0303 24.9697L64.7743 22.7137C64.9153 22.4205 65 22.0965 65 21.75C65 20.5095 63.9905 19.5 62.75 19.5C61.5095 19.5 60.5 20.5095 60.5 21.75C60.5 22.9905 61.5095 24 62.75 24ZM62.75 21C63.1632 21 63.5 21.3368 63.5 21.75C63.5 22.1632 63.1632 22.5 62.75 22.5C62.3368 22.5 62 22.1632 62 21.75C62 21.3368 62.3368 21 62.75 21Z" fill="#444444"/>
<path d="M35.75 21.75H34.25V23.25H35.75V21.75Z" fill="#444444"/>
<path d="M40.25 21.75H38.75V23.25H40.25V21.75Z" fill="#444444"/>
<path d="M44.75 21.75H43.25V23.25H44.75V21.75Z" fill="#444444"/>
<path d="M49.25 21.75H47.75V23.25H49.25V21.75Z" fill="#444444"/>
<path d="M53.75 21.75H52.25V23.25H53.75V21.75Z" fill="#444444"/>
<path d="M58.25 21.75H56.75V23.25H58.25V21.75Z" fill="#444444"/>
<path d="M69.5 6.75H62.7185C59.6893 3.08775 55.1127 0.75 50 0.75C44.8873 0.75 40.3108 3.08775 37.2815 6.75H30.5C28.4323 6.75 26.75 8.43225 26.75 10.5V37.5C26.75 39.5677 28.4323 41.25 30.5 41.25H41V45.75H38V47.25H62V45.75H59V41.25H69.5C71.5677 41.25 73.25 39.5677 73.25 37.5V10.5C73.25 8.43225 71.5677 6.75 69.5 6.75ZM50.75 11.9797C53.042 11.9212 54.9627 11.6093 56.5363 11.1757C57.059 12.7305 57.4108 14.5035 57.4827 16.5H50.75V11.9797ZM50.75 10.4797V2.94075C52.1248 4.02 54.4595 6.2355 55.9925 9.75975C54.563 10.1445 52.823 10.4235 50.75 10.4797ZM49.25 2.92425V10.4797C47.1672 10.4227 45.419 10.1415 43.9865 9.7545C45.5165 6.19875 47.8647 3.993 49.25 2.92425ZM49.25 11.9797V16.5H42.5165C42.587 14.4975 42.9335 12.7245 43.448 11.172C45.0252 11.6077 46.9505 11.9212 49.25 11.9797ZM41.0173 16.5H35.0382C35.1882 13.491 36.2225 10.7183 37.895 8.42925C38.5302 8.97375 39.8593 9.93 42.0162 10.7175C41.4583 12.4035 41.0878 14.3287 41.0173 16.5ZM68.75 18V27H31.25V18H68.75ZM58.9827 16.5C58.9115 14.3287 58.541 12.4035 57.9837 10.7175C60.1408 9.93075 61.4697 8.97375 62.105 8.42925C63.7775 10.7183 64.8118 13.491 64.9618 16.5H58.9827ZM61.157 7.26C60.6575 7.68825 59.468 8.5635 57.4505 9.30075C56.0892 6.06975 54.095 3.84075 52.5665 2.48625C55.9565 3.07425 58.9528 4.8 61.157 7.26ZM47.4335 2.48625C45.905 3.8415 43.9107 6.0705 42.5495 9.30075C40.532 8.5635 39.3418 7.68825 38.843 7.26C41.0473 4.8 44.0435 3.07425 47.4335 2.48625ZM30.5 8.25H36.1812C34.6167 10.644 33.6552 13.4655 33.5187 16.5H29.75V28.5H70.25V16.5H66.4812C66.3447 13.4655 65.3833 10.644 63.8187 8.25H69.5C70.7405 8.25 71.75 9.2595 71.75 10.5V35.25H28.25V10.5C28.25 9.2595 29.2595 8.25 30.5 8.25ZM57.5 45.75H42.5V41.25H57.5V45.75ZM69.5 39.75H30.5C29.2595 39.75 28.25 38.7405 28.25 37.5V36.75H71.75V37.5C71.75 38.7405 70.7405 39.75 69.5 39.75Z" fill="#444444"/>
</svg>
