<svg width="74" height="70" viewBox="0 0 74 70" fill="none" xmlns="http://www.w3.org/2000/svg">
<path d="M49 50.9974C49 66.6022 42.9399 71.458 27.3118 67.8855C12.6404 64.5316 -3.94493 66.9111 0.83944 49.3735C8.49392 31.8359 18.0623 17.3605 30.5012 23.3919C43.8967 29.8873 49 35.3926 49 50.9974Z" fill="#FCDA60"/>
<g clip-path="url(#clip0)">
<path d="M49.837 52.5503L22.0945 46.0229L22.2978 45.159C30.4116 10.6743 44.8384 7.50154 45.449 7.38353L45.8429 7.30755L46.1614 7.55207C46.6555 7.92908 58.154 17.2018 50.0402 51.6864L49.837 52.5503ZM24.2376 44.7036L48.507 50.4139C55.199 21.1126 47.116 11.0115 45.3853 9.24855C43.0621 10.0504 31.3165 15.4806 24.2376 44.7036Z" fill="#444444"/>
<path d="M33.2385 61.3416L32.7689 60.5765C32.6432 60.3719 29.7006 55.5001 30.881 50.4834C31.1471 49.3525 31.5015 48.2698 31.9354 47.266L32.2296 46.583L40.7318 48.5835L40.6907 49.326C40.6314 50.418 40.4659 51.5451 40.1998 52.676C39.0195 57.6927 34.2046 60.7392 34 60.8661L33.2385 61.3416ZM33.2932 48.6577C33.0244 49.3685 32.797 50.1173 32.6147 50.8922C31.8656 54.0757 33.1184 57.3063 33.8367 58.7991C35.1488 57.7803 37.7206 55.4396 38.4666 52.2691C38.6489 51.4942 38.7793 50.7225 38.8556 49.9664L33.2932 48.6577Z" fill="#444444"/>
<path d="M60.6241 47.821L50.0026 44.2196L51.0635 35.2543L52.1836 35.7859C53.177 36.2576 54.1618 36.8394 55.11 37.5147C59.3197 40.5128 60.3294 46.1141 60.3696 46.3515L60.6241 47.821ZM51.9404 43.0025L58.2118 45.1281C57.6556 43.4127 56.4442 40.6441 54.077 38.9575C53.5715 38.5978 53.0571 38.268 52.5361 37.9704L51.9404 43.0025Z" fill="#444444"/>
<path d="M14.5854 36.9885L15.4677 35.7857C15.6095 35.5911 19.0109 31.0277 24.1166 30.2213C25.2656 30.0395 26.4065 29.9578 27.506 29.9785L28.7456 30.0022L25.6977 38.4999L14.5854 36.9885ZM26.2169 31.7786C25.6178 31.8127 25.0103 31.8785 24.3984 31.9753C21.5268 32.4283 19.2071 34.3661 17.9451 35.6547L24.5063 36.5484L26.2169 31.7786Z" fill="#444444"/>
<path d="M37.3117 43.5675C32.1135 42.3445 28.8752 37.1351 30.0942 31.9542C31.3132 26.7734 36.5345 23.5544 41.7328 24.7775C46.931 26.0006 50.1693 31.21 48.9503 36.3908C47.7314 41.5717 42.51 44.7906 37.3117 43.5675ZM41.3262 26.5053C37.0834 25.507 32.8229 28.1342 31.8281 32.3622C30.8333 36.5902 33.4754 40.8414 37.7183 41.8397C41.9611 42.838 46.2217 40.2108 47.2164 35.9829C48.2112 31.7549 45.5691 27.5036 41.3262 26.5053Z" fill="#444444"/>
<path d="M43.2196 35.9543L38.4514 34.8324L40.0273 28.1345L41.7612 28.5425L40.5919 33.5126L43.6262 34.2265L43.2196 35.9543Z" fill="#444444"/>
<path d="M33.4829 5.39942L31.749 4.99146L28.1392 20.3336L29.8731 20.7416L33.4829 5.39942Z" fill="#444444"/>
<path d="M28.6431 12.3571L26.9092 11.9491L24.3629 22.7713L26.0968 23.1793L28.6431 12.3571Z" fill="#444444"/>
<path d="M51.0936 17.6574L36.5947 14.246L36.1882 15.9738L50.6871 19.3852L51.0936 17.6574Z" fill="#444444"/>
</g>
<defs>
<clipPath id="clip0">
<rect width="57" height="58" fill="white" transform="translate(18.2842) rotate(13.2402)"/>
</clipPath>
</defs>
</svg>
